<svg xmlns="http://www.w3.org/2000/svg" viewBox="0 0 60 400">
  <defs>
    <linearGradient id="seaweedGrad" x1="0%" y1="0%" x2="100%" y2="0%">
      <stop offset="0%" stop-color="#1B5E20"/>
      <stop offset="30%" stop-color="#2E7D32"/>
      <stop offset="70%" stop-color="#4CAF50"/>
      <stop offset="100%" stop-color="#2E7D32"/>
    </linearGradient>
    <linearGradient id="seaweedGrad2" x1="0%" y1="0%" x2="100%" y2="0%">
      <stop offset="0%" stop-color="#2E7D32"/>
      <stop offset="50%" stop-color="#66BB6A"/>
      <stop offset="100%" stop-color="#388E3C"/>
    </linearGradient>
  </defs>
  
  <!-- Main seaweed strand 1 -->
  <path d="M15 400 Q10 350 20 300 Q5 250 25 200 Q10 150 20 100 Q5 50 15 0 
           L25 0 Q30 50 20 100 Q35 150 20 200 Q35 250 25 300 Q40 350 25 400 Z" 
           fill="url(#seaweedGrad)" opacity="0.9"/>
  
  <!-- Main seaweed strand 2 -->
  <path d="M35 400 Q40 350 30 300 Q45 250 25 200 Q40 150 30 100 Q45 50 35 0 
           L45 0 Q40 50 50 100 Q35 150 50 200 Q35 250 45 300 Q30 350 45 400 Z" 
           fill="url(#seaweedGrad2)" opacity="0.8"/>
  
  <!-- Small details and leaves -->
  <ellipse cx="12" cy="80" rx="3" ry="8" fill="#4CAF50" opacity="0.7"/>
  <ellipse cx="28" cy="120" rx="3" ry="8" fill="#4CAF50" opacity="0.7"/>
  <ellipse cx="18" cy="180" rx="3" ry="8" fill="#4CAF50" opacity="0.7"/>
  <ellipse cx="32" cy="220" rx="3" ry="8" fill="#4CAF50" opacity="0.7"/>
  <ellipse cx="22" cy="280" rx="3" ry="8" fill="#4CAF50" opacity="0.7"/>
  <ellipse cx="38" cy="320" rx="3" ry="8" fill="#4CAF50" opacity="0.7"/>
  
  <!-- Collision boundary guides (invisible in final game) -->
  <!-- These help define the actual collision area which is narrower than the visual -->
  <rect x="12" y="0" width="28" height="400" fill="none" stroke="none" id="collision-bounds"/>
</svg>